<svg width="32" height="32" xmlns="http://www.w3.org/2000/svg">

 <g>
  <title>background</title>
  <rect fill="none" id="canvas_background" height="34" width="34" y="-1" x="-1"/>
 </g>
 <g>
  <title>Layer 1</title>
  <g stroke="null" id="svg_1">
   <path stroke="null" d="m31.999941,5.333675c0,-2.802484 -2.530129,-5.333679 -5.333324,-5.333679l-21.333295,0c-2.803195,0 -5.333324,2.531195 -5.333324,5.333679l0,21.332582c0,2.802484 2.530129,5.333679 5.333679,5.333679l10.666292,0l0,-12.088866l-3.911104,0l0,-5.333323l3.911104,0l0,-2.077863c0,-3.583638 2.69084,-6.811009 5.999989,-6.811009l4.311103,0l0,5.333323l-4.311103,0c-0.471821,0 -1.02222,0.572799 -1.02222,1.430753l0,2.124796l5.333324,0l0,5.333323l-5.333324,0l0,12.088866l5.688879,0c2.803195,0 5.333324,-2.531195 5.333324,-5.333679l0,-21.332582z" id="Facebook__x28_alt_x29_"/>
  </g>
  <g id="svg_2"/>
  <g id="svg_3"/>
  <g id="svg_4"/>
  <g id="svg_5"/>
  <g id="svg_6"/>
  <g id="svg_7"/>
  <g id="svg_8"/>
  <g id="svg_9"/>
  <g id="svg_10"/>
  <g id="svg_11"/>
  <g id="svg_12"/>
  <g id="svg_13"/>
  <g id="svg_14"/>
  <g id="svg_15"/>
  <g id="svg_16"/>
 </g>
</svg>